{
  "accessors": [
    {
      "bufferView": 2,
      "componentType": 5126,
      "count": 14875,
      "max": [
        1.5102529525756836,
        8.535313606262207,
        4.967981815338135
      ],
      "min": [
        -1.5087089538574219,
        -3.7438929080963135,
        -0.0067529878579080105
      ],
      "type": "VEC3"
    },
    {
      "bufferView": 2,
      "byteOffset": 178500,
      "componentType": 5126,
      "count": 14875,
      "max": [
        1.0,
        0.9998354911804199,
        0.9999380111694336
      ],
      "min": [
        -0.9998204112052917,
        -0.999922513961792,
        -0.9997887015342712
      ],
      "type": "VEC3"
    },
    {
      "bufferView": 3,
      "componentType": 5126,
      "count": 14875,
      "max": [
        0.999958872795105,
        1.0,
        0.9999904036521912,
        1.0
      ],
      "min": [
        -1.0,
        -0.9999807476997375,
        -0.9999856352806091,
        -1.0
      ],
      "type": "VEC4"
    },
    {
      "bufferView": 1,
      "componentType": 5126,
      "count": 14875,
      "max": [
        0.9882810115814209,
        0.9928709268569946
      ],
      "min": [
        0.0024409890174865723,
        0.0060538649559021
      ],
      "type": "VEC2"
    },
    {
      "bufferView": 0,
      "componentType": 5125,
      "count": 77238,
      "type": "SCALAR"
    },
    {
      "bufferView": 2,
      "byteOffset": 357000,
      "componentType": 5126,
      "count": 142,
      "max": [
        0.2367561012506485,
        -2.757891893386841,
        4.618741989135742
      ],
      "min": [
        -0.23675410449504852,
        -2.884471893310547,
        4.468242168426514
      ],
      "type": "VEC3"
    },
    {
      "bufferView": 2,
      "byteOffset": 358704,
      "componentType": 5126,
      "count": 142,
      "max": [
        0.997362494468689,
        0.8277724981307983,
        0.9717975854873657
      ],
      "min": [
        -0.9966986179351807,
        -0.958935022354126,
        -0.9973253011703491
      ],
      "type": "VEC3"
    },
    {
      "bufferView": 3,
      "byteOffset": 238000,
      "componentType": 5126,
      "count": 142,
      "max": [
        0.9704270362854004,
        0.3435889184474945,
        0.9699820876121521,
        1.0
      ],
      "min": [
        -0.9737393260002136,
        -0.7632739543914795,
        0.07256284356117249,
        -1.0
      ],
      "type": "VEC4"
    },
    {
      "bufferView": 1,
      "byteOffset": 119000,
      "componentType": 5126,
      "count": 142,
      "max": [
        0.7070310115814209,
        0.2790710926055908
      ],
      "min": [
        0.6005859971046448,
        0.16774310171604156
      ],
      "type": "VEC2"
    },
    {
      "bufferView": 0,
      "byteOffset": 308952,
      "componentType": 5125,
      "count": 780,
      "type": "SCALAR"
    }
  ],
  "asset": {
    "extras": {
      "author": "EWTube0 (https://sketchfab.com/EWTube0)",
      "license": "CC-BY-4.0 (http://creativecommons.org/licenses/by/4.0/)",
      "source": "https://sketchfab.com/3d-models/jurassic-world-indominus-rex-caf4955fde8f42e8bcaf9f00528629c8",
      "title": "Jurassic World: Indominus Rex"
    },
    "generator": "Sketchfab-12.12.0",
    "version": "2.0"
  },
  "bufferViews": [
    {
      "buffer": 0,
      "byteLength": 312072,
      "name": "floatBufferViews",
      "target": 34963
    },
    {
      "buffer": 0,
      "byteLength": 120136,
      "byteOffset": 312072,
      "byteStride": 8,
      "name": "floatBufferViews",
      "target": 34962
    },
    {
      "buffer": 0,
      "byteLength": 360408,
      "byteOffset": 432208,
      "byteStride": 12,
      "name": "floatBufferViews",
      "target": 34962
    },
    {
      "buffer": 0,
      "byteLength": 240272,
      "byteOffset": 792616,
      "byteStride": 16,
      "name": "floatBufferViews",
      "target": 34962
    }
  ],
  "buffers": [
    {
      "byteLength": 1032888,
      "uri": "scene.bin"
    }
  ],
  "images": [
    {
      "uri": "textures/Model001_Material001_baseColor.png"
    },
    {
      "uri": "textures/Model001_Material001_normal.png"
    }
  ],
  "materials": [
    {
      "doubleSided": true,
      "name": "Model001_Material001",
      "normalTexture": {
        "index": 1
      },
      "pbrMetallicRoughness": {
        "baseColorTexture": {
          "index": 0
        },
        "metallicFactor": 0.0
      }
    },
    {
      "doubleSided": true,
      "name": "Model001_Material002",
      "normalTexture": {
        "index": 1
      },
      "pbrMetallicRoughness": {
        "baseColorTexture": {
          "index": 0
        },
        "metallicFactor": 0.0
      }
    }
  ],
  "meshes": [
    {
      "name": "Object_0",
      "primitives": [
        {
          "attributes": {
            "NORMAL": 1,
            "POSITION": 0,
            "TANGENT": 2,
            "TEXCOORD_0": 3
          },
          "indices": 4,
          "material": 0,
          "mode": 4
        }
      ]
    },
    {
      "name": "Object_1",
      "primitives": [
        {
          "attributes": {
            "NORMAL": 6,
            "POSITION": 5,
            "TANGENT": 7,
            "TEXCOORD_0": 8
          },
          "indices": 9,
          "material": 1,
          "mode": 4
        }
      ]
    }
  ],
  "nodes": [
    {
      "children": [
        1
      ],
      "matrix": [
        1.0,
        0.0,
        0.0,
        0.0,
        0.0,
        2.220446049250313e-16,
        -1.0,
        0.0,
        0.0,
        1.0,
        2.220446049250313e-16,
        0.0,
        0.0,
        0.0,
        0.0,
        1.0
      ],
      "name": "Sketchfab_model"
    },
    {
      "children": [
        2,
        3
      ],
      "name": "Jurassic World Indominus Rex.obj.cleaner.materialmerger.gles"
    },
    {
      "mesh": 0,
      "name": "Object_2"
    },
    {
      "mesh": 1,
      "name": "Object_3"
    }
  ],
  "samplers": [
    {
      "magFilter": 9729,
      "minFilter": 9987,
      "wrapS": 10497,
      "wrapT": 10497
    }
  ],
  "scene": 0,
  "scenes": [
    {
      "name": "Sketchfab_Scene",
      "nodes": [
        0
      ]
    }
  ],
  "textures": [
    {
      "sampler": 0,
      "source": 0
    },
    {
      "sampler": 0,
      "source": 1
    }
  ]
}
